<svg width="154.000000" height="15.000000" viewBox="0 0 154 15" fill="none" xmlns="http://www.w3.org/2000/svg" xmlns:xlink="http://www.w3.org/1999/xlink">
	<desc>
			Created with Pixso.
	</desc>
	<defs/>
	<path id="Vector" d="M35.44 14.41L35.44 -0.52L41.18 -0.52C42.34 -0.52 43.28 -0.37 43.99 -0.07C44.69 0.24 45.24 0.7 45.64 1.33C46.04 1.95 46.24 2.61 46.24 3.3C46.24 3.94 46.06 4.54 45.71 5.1C45.36 5.67 44.82 6.12 44.1 6.47C45.03 6.73 45.74 7.18 46.23 7.82C46.73 8.46 46.98 9.22 46.98 10.09C46.98 10.79 46.83 11.43 46.52 12.04C46.22 12.64 45.85 13.1 45.4 13.42C44.95 13.75 44.4 14 43.73 14.16C43.06 14.33 42.23 14.41 41.26 14.41L35.44 14.41ZM37.46 5.76L40.76 5.76C41.66 5.76 42.3 5.7 42.69 5.58C43.21 5.43 43.59 5.18 43.86 4.84C44.12 4.5 44.25 4.06 44.25 3.54C44.25 3.04 44.12 2.61 43.88 2.23C43.64 1.85 43.29 1.6 42.84 1.46C42.39 1.31 41.62 1.25 40.52 1.25L37.47 1.25L37.47 5.76L37.46 5.76ZM37.46 12.65L41.27 12.65C41.92 12.65 42.37 12.62 42.64 12.58C43.11 12.5 43.5 12.36 43.81 12.17C44.12 11.98 44.38 11.71 44.58 11.34C44.78 10.98 44.88 10.56 44.88 10.09C44.88 9.53 44.74 9.04 44.44 8.63C44.15 8.22 43.75 7.93 43.23 7.76C42.71 7.59 41.97 7.51 41 7.51L37.46 7.51L37.46 12.65Z" fill="#263238" fill-opacity="1.000000" fill-rule="nonzero"/>
	<path id="Vector" d="M50.02 14.41L50.02 -0.52L61.06 -0.52L61.06 1.25L52.04 1.25L52.04 5.82L60.49 5.82L60.49 7.57L52.04 7.57L52.04 12.65L61.42 12.65L61.42 14.41L50.02 14.41Z" fill="#263238" fill-opacity="1.000000" fill-rule="nonzero"/>
	<path id="Vector" d="M65.54 -0.52L75.1 -0.52L75.1 14.41L73.08 14.41L73.08 1.25L67.56 1.25L67.56 8.93C67.56 10.5 67.48 11.64 67.33 12.37C67.18 13.09 66.87 13.66 66.38 14.06C65.9 14.47 65.3 14.67 64.56 14.67C64.11 14.67 63.58 14.59 62.95 14.43L63.3 12.68C63.63 12.81 63.92 12.88 64.15 12.88C64.61 12.88 64.95 12.71 65.19 12.37C65.41 12.04 65.53 11.24 65.53 10L65.53 -0.52L65.54 -0.52Z" fill="#263238" fill-opacity="1.000000" fill-rule="nonzero"/>
	<path id="Vector" d="M78.03 7.14C78.03 4.67 78.71 2.73 80.07 1.33C81.43 -0.07 83.19 -0.77 85.34 -0.77C86.75 -0.77 88.02 -0.44 89.15 0.22C90.28 0.88 91.15 1.79 91.74 2.97C92.34 4.15 92.63 5.48 92.63 6.98C92.63 8.49 92.32 9.84 91.7 11.03C91.07 12.23 90.19 13.13 89.04 13.75C87.89 14.36 86.65 14.67 85.33 14.67C83.89 14.67 82.61 14.33 81.47 13.65C80.34 12.97 79.48 12.05 78.89 10.87C78.32 9.69 78.03 8.46 78.03 7.14ZM80.11 7.17C80.11 8.97 80.6 10.39 81.6 11.42C82.59 12.45 83.83 12.97 85.32 12.97C86.85 12.97 88.1 12.45 89.08 11.4C90.06 10.36 90.55 8.87 90.55 6.96C90.55 5.74 90.34 4.68 89.92 3.77C89.5 2.86 88.88 2.16 88.07 1.66C87.27 1.17 86.36 0.92 85.34 0.92C83.91 0.92 82.68 1.4 81.65 2.36C80.62 3.32 80.11 4.93 80.11 7.17Z" fill="#263238" fill-opacity="1.000000" fill-rule="nonzero"/>
	<path id="Vector" d="M94.77 9.61L96.68 9.45C96.77 10.2 96.98 10.81 97.31 11.29C97.64 11.77 98.15 12.16 98.85 12.45C99.54 12.74 100.32 12.89 101.19 12.89C101.96 12.89 102.64 12.78 103.23 12.56C103.82 12.33 104.25 12.02 104.54 11.63C104.83 11.24 104.98 10.82 104.98 10.35C104.98 9.88 104.84 9.48 104.56 9.13C104.29 8.78 103.83 8.48 103.19 8.25C102.77 8.09 101.87 7.85 100.47 7.52C99.06 7.19 98.08 6.88 97.52 6.59C96.79 6.22 96.24 5.76 95.88 5.21C95.53 4.65 95.35 4.03 95.35 3.35C95.35 2.59 95.57 1.89 96 1.23C96.44 0.58 97.08 0.08 97.92 -0.26C98.76 -0.6 99.69 -0.77 100.72 -0.77C101.85 -0.77 102.85 -0.6 103.72 -0.24C104.59 0.12 105.25 0.64 105.72 1.33C106.18 2.03 106.43 2.81 106.47 3.68L104.53 3.83C104.43 2.88 104.08 2.17 103.47 1.68C102.87 1.2 101.98 0.96 100.81 0.96C99.59 0.96 98.69 1.19 98.14 1.62C97.58 2.06 97.3 2.59 97.3 3.21C97.3 3.74 97.5 4.18 97.89 4.53C98.27 4.88 99.29 5.23 100.93 5.6C102.57 5.96 103.7 6.28 104.32 6.54C105.21 6.95 105.86 7.45 106.29 8.07C106.71 8.68 106.92 9.39 106.92 10.19C106.92 10.98 106.69 11.73 106.23 12.43C105.76 13.13 105.09 13.69 104.22 14.08C103.35 14.47 102.37 14.66 101.28 14.66C99.89 14.66 98.74 14.47 97.81 14.07C96.87 13.68 96.14 13.09 95.61 12.29C95.07 11.51 94.8 10.62 94.77 9.61Z" fill="#263238" fill-opacity="1.000000" fill-rule="nonzero"/>
	<path id="Vector" d="M109.97 14.41L109.97 -0.52L111.98 -0.52L111.98 5.62L119.93 5.62L119.93 -0.52L121.95 -0.52L121.95 14.41L119.93 14.41L119.93 7.38L111.98 7.38L111.98 14.41L109.97 14.41Z" fill="#263238" fill-opacity="1.000000" fill-rule="nonzero"/>
	<path id="Vector" d="M124.91 7.14C124.91 4.67 125.59 2.73 126.95 1.33C128.31 -0.07 130.07 -0.77 132.22 -0.77C133.63 -0.77 134.9 -0.44 136.03 0.22C137.16 0.88 138.03 1.79 138.63 2.97C139.22 4.15 139.51 5.48 139.51 6.98C139.51 8.49 139.2 9.84 138.58 11.03C137.95 12.23 137.07 13.13 135.92 13.75C134.77 14.36 133.53 14.67 132.21 14.67C130.77 14.67 129.49 14.33 128.35 13.65C127.22 12.97 126.36 12.05 125.78 10.87C125.21 9.69 124.91 8.46 124.91 7.14ZM127 7.17C127 8.97 127.49 10.39 128.48 11.42C129.48 12.45 130.72 12.97 132.21 12.97C133.73 12.97 134.99 12.45 135.97 11.4C136.95 10.36 137.44 8.87 137.44 6.96C137.44 5.74 137.23 4.68 136.81 3.77C136.39 2.86 135.77 2.16 134.96 1.66C134.15 1.17 133.24 0.92 132.23 0.92C130.8 0.92 129.57 1.4 128.54 2.36C127.51 3.32 127 4.93 127 7.17Z" fill="#263238" fill-opacity="1.000000" fill-rule="nonzero"/>
	<path id="Vector" d="M142.34 14.41L142.34 -0.52L148.1 -0.52C149.11 -0.52 149.89 -0.47 150.42 -0.37C151.17 -0.25 151.8 -0.02 152.31 0.33C152.82 0.67 153.22 1.15 153.53 1.77C153.84 2.38 154 3.06 154 3.8C154 5.07 153.58 6.14 152.75 7.02C151.93 7.9 150.43 8.34 148.28 8.34L144.36 8.34L144.36 14.41L142.34 14.41L142.34 14.41ZM144.36 6.59L148.3 6.59C149.61 6.59 150.54 6.35 151.09 5.87C151.64 5.39 151.91 4.73 151.91 3.87C151.91 3.24 151.75 2.71 151.42 2.26C151.1 1.82 150.67 1.52 150.15 1.38C149.81 1.29 149.18 1.25 148.26 1.25L144.36 1.25L144.36 6.59Z" fill="#263238" fill-opacity="1.000000" fill-rule="nonzero"/>
	<rect id="circle" x="18.000000" y="0.279449" rx="6.500000" width="13.000000" height="13.000000" stroke="#263238" stroke-opacity="1.000000" stroke-width="2.000000"/>
	<rect id="circle" x="1.000000" y="0.279449" rx="6.500000" width="13.000000" height="13.000000" stroke="#263238" stroke-opacity="1.000000" stroke-width="2.000000"/>
</svg>
